<svg xmlns="http://www.w3.org/2000/svg" viewBox="0 0 256 384">
  <polygon fill="#CBA9A9" points="119,13 119,14 121,16 121,17 124,20 124,21 125,22 125,23 128,26 128,28 129,29 129,30 130,31 130,32 131,33 131,35 132,36 132,38 133,39 133,41 134,42 134,45 135,46 135,51 136,52 136,68 135,69 135,75 134,76 134,80 133,81 133,84 132,85 132,88 131,89 131,91 130,92 130,94 129,95 129,97 128,98 128,100 126,102 126,103 125,104 125,105 123,107 123,108 121,110 121,111 120,112 120,113 115,118 115,119 108,126 108,127 107,128 106,128 104,130 104,131 85,150 84,150 84,151 79,156 78,156 78,157 68,167 68,168 64,172 64,173 63,174 62,174 62,175 60,177 60,178 56,182 56,183 55,184 55,185 53,187 53,188 51,190 51,191 50,192 50,193 49,194 49,195 48,196 48,197 47,198 47,199 46,200 46,201 45,202 45,204 44,205 44,206 43,207 43,208 42,209 42,212 41,213 41,215 40,216 40,220 39,221 39,224 38,225 38,232 37,233 37,248 38,249 38,260 39,261 39,266 40,267 40,271 41,272 41,276 42,277 42,279 43,280 43,283 44,284 44,285 45,286 45,288 46,289 46,291 47,292 47,293 48,294 48,295 49,296 49,298 50,299 50,300 51,301 51,302 53,304 53,305 54,306 54,307 56,309 56,310 58,312 58,313 61,316 61,317 75,331 76,331 80,335 81,335 83,337 84,337 86,339 87,339 88,340 89,340 91,342 92,342 93,343 95,343 97,345 98,345 99,346 100,346 101,347 103,347 104,348 105,348 106,349 108,349 109,350 111,350 112,351 114,351 115,352 117,352 118,353 121,353 122,354 125,354 126,355 130,355 131,356 135,356 135,355 133,353 132,353 129,350 128,350 127,349 127,348 126,348 105,327 105,326 102,323 102,322 99,319 99,318 97,316 97,315 95,313 95,312 94,311 94,310 92,308 92,307 91,306 91,305 90,304 90,302 89,301 89,300 88,299 88,298 87,297 87,296 86,295 86,293 85,292 85,289 84,288 84,286 83,285 83,282 82,281 82,277 81,276 81,272 80,271 80,251 81,250 81,243 82,242 82,237 83,236 83,234 84,233 84,229 85,228 85,226 86,225 86,223 87,222 87,220 88,219 88,218 89,217 89,215 90,214 90,213 91,212 91,210 92,209 92,208 93,207 93,206 94,205 94,204 95,203 95,202 96,201 96,200 97,199 97,198 98,197 98,196 100,194 100,193 102,191 102,190 103,189 103,188 105,186 105,185 107,183 107,182 109,180 109,179 111,177 111,176 116,171 117,172 117,173 116,174 116,175 115,176 115,178 114,179 114,182 113,183 113,186 112,187 112,193 111,194 111,209 112,210 112,217 113,218 113,221 114,222 114,225 115,226 115,227 116,228 116,230 117,231 117,232 118,233 118,234 119,235 119,236 120,237 120,238 121,239 121,240 122,241 122,242 125,245 125,246 133,254 134,254 137,257 138,257 139,258 140,258 142,260 143,260 144,261 145,261 146,262 147,262 148,263 150,263 152,265 154,265 155,266 156,266 157,267 158,267 159,268 160,268 161,269 162,269 163,270 164,270 165,271 167,271 169,273 170,273 171,274 172,274 174,276 175,276 177,278 178,278 181,281 182,281 189,288 189,289 192,292 192,293 193,294 193,295 194,296 194,297 196,299 196,301 197,302 197,303 198,304 198,307 199,308 199,310 200,311 200,318 201,319 201,323 200,324 200,330 199,331 199,333 198,334 198,336 197,337 197,338 196,339 196,340 194,342 194,343 184,353 183,353 181,355 180,355 179,356 183,356 184,355 190,355 191,354 195,354 196,353 198,353 199,352 201,352 202,351 204,351 205,350 207,350 208,349 209,349 210,348 211,348 212,347 213,347 214,346 215,346 216,345 217,345 218,344 219,344 220,343 221,343 223,341 224,341 226,339 227,339 231,335 232,335 244,323 244,322 247,319 247,318 250,315 250,314 251,313 251,312 253,310 253,309 255,307 255,305 257,303 257,302 258,301 258,300 259,299 259,297 260,296 260,295 261,294 261,293 262,292 262,290 263,289 263,287 264,286 264,284 265,283 265,280 266,279 266,277 267,276 267,273 268,272 268,268 269,267 269,262 270,261 270,254 271,253 271,235 270,234 270,226 269,225 269,219 268,218 268,214 267,213 267,210 266,209 266,207 265,206 265,203 264,202 264,200 263,199 263,197 262,196 262,194 261,193 261,192 260,191 260,189 259,188 259,187 258,186 258,185 257,184 257,183 256,182 256,181 255,180 255,178 254,177 254,176 253,175 253,174 251,172 251,171 250,170 250,169 249,168 249,167 247,165 247,164 246,163 246,162 243,159 243,158 242,157 242,156 240,154 240,153 238,151 238,150 236,148 236,147 233,144 233,143 227,137 227,136 220,129 220,130 221,131 221,132 223,134 223,135 224,136 224,137 225,138 225,140 226,141 226,143 227,144 227,146 228,147 228,150 229,151 229,155 230,156 230,162 231,163 231,175 230,176 230,180 229,181 229,184 228,185 228,187 227,188 227,190 226,191 226,192 225,193 225,194 224,195 224,196 223,197 223,198 215,206 210,206 209,205 208,205 204,201 204,200 203,199 203,198 201,196 201,194 200,193 200,192 199,191 199,188 198,187 198,184 197,183 197,178 196,177 196,170 195,169 195,160 194,159 194,136 193,135 193,128 192,127 192,120 191,119 191,113 190,112 190,108 189,107 189,104 188,103 188,100 187,99 187,97 186,96 186,93 185,92 185,90 184,89 184,88 183,87 183,85 182,84 182,82 181,81 181,80 180,79 180,78 179,77 179,75 177,73 177,71 175,69 175,68 174,67 174,66 173,65 173,64 172,63 172,62 170,60 170,59 167,56 167,55 165,53 165,52 163,50 163,49 159,45 159,44 145,30 144,30 139,25 138,25 137,24 136,24 135,23 135,22 134,22 132,20 131,20 129,18 128,18 127,17 126,17 125,16 124,16 122,14 120,14" />
</svg>
